<?xml version="1.0" encoding="UTF-8"?>
<!-- Generator: visioncortex VTracer 0.6.5 -->
<svg version="1.1" xmlns="http://www.w3.org/2000/svg" viewBox="0 0 1254 1254" width="1254" height="1254">

<path d="M0 0 C4.31 0.01 8.61 0.01 12.92 0.01 C20.35 0 27.79 0.01 35.22 0.03 C45.97 0.06 56.72 0.06 67.48 0.07 C84.92 0.07 102.37 0.09 119.82 0.12 C136.76 0.15 153.69 0.17 170.63 0.18 C171.15 0.18 171.15 0.18 173.8 0.19 C179.05 0.19 184.3 0.19 189.54 0.2 C233 0.23 276.46 0.28 319.92 0.35 C319.72 0.58 319.72 0.58 318.69 1.73 C315.94 4.88 313.37 7.84 311.48 11.6 C311.08 12.37 310.69 13.13 310.27 13.92 C309.85 14.73 309.43 15.55 308.99 16.39 C301.94 29.34 293.56 41.23 284.36 52.72 C284.15 52.99 284.15 52.99 283.08 54.33 C262.01 80.61 236.63 96.86 202.82 100.86 C166.25 104.64 129.3 104.13 92.61 103.22 C91.88 103.21 91.15 103.19 90.39 103.17 C63.14 102.5 35.89 101.59 8.66 100.04 C7.43 99.97 6.19 99.9 4.91 99.83 C-0.87 99.52 -6.64 99.18 -12.41 98.79 C-23.17 98.13 -32.03 97.9 -42.08 102.35 C-42.85 102.66 -43.61 102.98 -44.4 103.31 C-46.28 104.1 -48.08 104.98 -49.89 105.91 C-50.55 106.25 -51.22 106.59 -51.9 106.94 C-65.1 113.89 -76.58 122.8 -87.08 133.35 C-87.98 134.25 -88.88 135.15 -89.8 136.07 C-102.87 149.75 -113.56 165.68 -124.08 181.35 C-124.93 182.6 -125.78 183.86 -126.63 185.11 C-132.66 194.06 -138.41 203.17 -144.08 212.35 C-142.56 211.54 -141.04 210.72 -139.51 209.91 C-138.16 209.19 -136.8 208.47 -135.45 207.75 C-132.16 206 -128.88 204.24 -125.62 202.42 C-100.12 188.34 -72.3 177.54 -44.08 170.35 C-43.09 170.09 -42.1 169.84 -41.07 169.58 C-11.64 162.17 16.7 159.63 46.92 159.35 C46.35 159.06 46.35 159.06 43.49 157.63 C32.59 152.13 22.64 145.72 12.92 138.35 C12.36 137.94 11.81 137.54 11.23 137.12 C7.31 134.12 5.15 130.76 3.11 126.35 C2.81 125.74 2.51 125.14 2.2 124.52 C0.59 121.16 -0.54 118.04 -1.08 114.35 C3.59 115.34 7.77 116.65 12.14 118.56 C19.99 121.87 28.02 124.55 36.11 127.22 C36.9 127.49 37.7 127.75 38.52 128.03 C48.86 131.46 59.22 134.7 69.74 137.55 C80.71 140.52 91.59 143.75 102.48 146.97 C103.43 147.25 104.37 147.53 105.34 147.82 C121.35 152.54 137.33 157.28 153.04 162.91 C154.23 163.33 155.41 163.76 156.63 164.19 C169.33 168.79 181.87 173.76 194.36 178.89 C197.81 180.3 201.28 181.68 204.75 183.05 C206.83 183.9 208.9 184.75 210.98 185.6 C211.45 185.78 211.45 185.78 213.83 186.7 C220.1 189.33 223.05 192.19 225.92 198.35 C226.42 199.41 226.92 200.48 227.43 201.58 C227.82 202.55 228.21 203.53 228.61 204.54 C228.8 205.03 228.8 205.03 229.81 207.52 C230.51 209.31 231.17 211.11 231.75 212.95 C233.27 216.07 235.17 217.49 237.92 219.6 C241.7 222.58 245.37 225.59 248.92 228.85 C253.23 232.78 257.7 236.47 262.23 240.13 C265.63 242.93 268.89 245.85 272.14 248.82 C273.92 250.35 273.92 250.35 275.92 251.35 C275.92 252.01 275.92 252.67 275.92 253.35 C273.4 253.43 270.88 253.49 268.36 253.54 C267.65 253.56 266.95 253.59 266.22 253.61 C261.1 253.68 257.59 252.64 252.92 250.35 C251.15 249.63 249.38 248.92 247.61 248.22 C245.33 247.32 243.11 246.44 240.92 245.35 C240.92 246.01 240.92 246.67 240.92 247.35 C241.67 247.6 242.42 247.86 243.19 248.12 C246.1 249.43 247.44 250.68 249.54 253.04 C254.08 257.79 259.28 261.03 264.92 264.35 C263.64 270.23 261.79 275.2 259.04 280.54 C258.71 281.22 258.37 281.91 258.02 282.61 C253.52 291.49 248.02 296.2 238.92 300.35 C235.86 301.08 232.87 301.52 229.74 301.9 C222.98 302.98 217.47 306.49 211.92 310.35 C205.43 314.35 205.43 314.35 202.92 314.35 C203.25 308.74 203.58 303.13 203.92 297.35 C202.27 296.69 200.62 296.03 198.92 295.35 C197.14 294.4 195.37 293.44 193.61 292.47 C186.35 288.77 178.83 287.06 170.92 285.35 C171.92 282.35 171.92 282.35 173.56 281.5 C174.26 281.29 174.96 281.07 175.68 280.85 C176.46 280.6 177.25 280.36 178.06 280.1 C178.9 279.85 179.74 279.6 180.61 279.35 C181.46 279.09 182.31 278.83 183.19 278.56 C190.36 276.41 197.56 274.72 204.92 273.35 C197.5 271.77 190.48 271.06 182.91 271.12 C182.4 271.12 182.4 271.12 179.84 271.12 C177.71 271.12 175.59 271.13 173.46 271.14 C170.26 271.16 167.05 271.16 163.85 271.16 C147.91 271.19 132.4 271.48 116.73 274.72 C115.61 274.95 114.48 275.17 113.32 275.41 C110.18 276.04 107.05 276.69 103.92 277.35 C103.19 277.5 102.46 277.65 101.71 277.81 C78.55 282.72 78.55 282.72 74.92 286.35 C73.12 286.85 71.31 287.27 69.48 287.66 C63.19 289.15 57.71 291.54 51.92 294.35 C49.59 295.35 47.26 296.35 44.92 297.35 C42.68 298.33 40.45 299.33 38.21 300.33 C36.78 300.96 35.35 301.59 33.91 302.21 C20 308.23 6.84 315.46 -6.08 323.35 C-6.99 323.9 -7.91 324.46 -8.85 325.03 C-22.96 333.65 -36.65 342.71 -50.08 352.35 C-51.58 353.42 -53.08 354.48 -54.58 355.55 C-65.4 363.27 -75.98 371.3 -86.53 379.39 C-89.02 381.3 -91.52 383.21 -94.01 385.11 C-95.54 386.28 -97.06 387.44 -98.58 388.6 C-98.92 388.86 -98.92 388.86 -100.66 390.19 C-101.31 390.68 -101.95 391.17 -102.61 391.68 C-103.16 392.1 -103.72 392.52 -104.29 392.95 C-106.57 394.73 -108.82 396.54 -111.08 398.35 C-96.23 398.51 -96.23 398.51 -21.08 399.35 C-24.52 401.93 -27.88 403.91 -31.69 405.84 C-33 406.51 -34.31 407.18 -35.62 407.85 C-38.69 409.42 -41.76 410.99 -44.84 412.56 C-52.69 416.57 -60.54 420.58 -68.37 424.63 C-90.96 436.28 -113.67 447.69 -136.41 459.04 C-137.19 459.44 -137.98 459.83 -138.78 460.23 C-150.96 466.32 -163.15 472.39 -175.33 478.47 C-186.07 483.83 -196.8 489.19 -207.54 494.55 C-212.15 496.86 -216.77 499.16 -221.39 501.46 C-224.24 502.89 -227.09 504.31 -229.94 505.73 C-231.26 506.39 -232.58 507.05 -233.89 507.7 C-235.69 508.6 -237.49 509.5 -239.29 510.4 C-240.29 510.9 -241.3 511.4 -242.33 511.91 C-244.98 513.3 -247.52 514.8 -250.08 516.35 C-251.32 516.85 -252.57 517.32 -253.83 517.74 C-258.48 519.42 -262.74 521.68 -267.08 524.04 C-274.91 528.25 -282.83 532.25 -290.79 536.21 C-294.9 538.25 -299 540.31 -303.11 542.36 C-304.85 543.23 -306.58 544.1 -308.31 544.97 C-309.18 545.4 -310.05 545.83 -310.94 546.28 C-328.75 555.19 -328.75 555.19 -330.93 556.27 C-332.41 557.01 -333.88 557.77 -335.35 558.55 C-337.23 559.54 -339.15 560.45 -341.08 561.35 C-341.74 561.02 -342.4 560.69 -343.08 560.35 C-337.8 555.58 -332.5 550.82 -327.13 546.15 C-324.82 544.12 -322.55 542.05 -320.27 539.97 C-316.85 536.88 -313.36 533.92 -309.77 531.04 C-304.95 527.14 -300.43 523.02 -295.92 518.79 C-292.57 515.67 -289.15 512.71 -285.58 509.85 C-280.18 505.51 -275.14 500.85 -270.08 496.13 C-267.12 493.37 -264.09 490.7 -261.03 488.05 C-258.74 486.05 -256.51 484.01 -254.27 481.97 C-250.81 478.84 -247.27 475.84 -243.64 472.91 C-239.84 469.83 -236.18 466.66 -232.58 463.35 C-228.11 459.24 -223.49 455.38 -218.77 451.57 C-215.36 448.75 -212.1 445.79 -208.86 442.78 C-204.72 439.16 -200.37 435.78 -196.08 432.35 C-230.07 432.02 -264.06 431.69 -299.08 431.35 C-293.44 425.71 -293.44 425.71 -290.65 423.44 C-290.03 422.93 -289.41 422.42 -288.77 421.9 C-288.11 421.37 -287.45 420.83 -286.77 420.29 C-286.07 419.72 -285.37 419.15 -284.65 418.57 C-279.2 414.18 -273.63 409.97 -268.01 405.8 C-263.48 402.43 -259.04 398.96 -254.64 395.41 C-248.71 390.63 -242.7 385.97 -236.64 381.35 C-231.34 377.32 -226.08 373.25 -220.83 369.16 C-213.6 363.53 -206.35 357.93 -199.08 352.35 C-196.91 350.68 -194.75 349.02 -192.58 347.35 C-191.5 346.51 -190.41 345.68 -189.33 344.85 C-188.79 344.44 -188.26 344.02 -187.71 343.6 C-186.08 342.35 -184.46 341.1 -182.83 339.85 C-182.29 339.44 -181.76 339.02 -181.21 338.6 C-180.12 337.76 -179.03 336.92 -177.94 336.09 C-175.33 334.08 -172.72 332.07 -170.11 330.06 C-155.21 318.58 -140.24 307.18 -125.18 295.92 C-122.89 294.2 -120.6 292.49 -118.31 290.77 C-90.21 269.64 -61.81 248.99 -32.47 229.6 C-31.64 229.05 -30.81 228.51 -29.96 227.95 C-29.24 227.47 -28.51 226.99 -27.76 226.49 C-26.08 225.35 -26.08 225.35 -25.08 224.35 C-36.85 226.17 -48.41 228.38 -59.96 231.29 C-60.71 231.48 -61.47 231.67 -62.26 231.86 C-80.19 236.38 -97.66 242.15 -115.08 248.35 C-115.73 248.58 -116.38 248.81 -117.04 249.04 C-156.3 262.94 -194.72 281.18 -230.37 302.71 C-233.04 304.32 -235.72 305.91 -238.4 307.5 C-251.1 315.02 -263.5 322.95 -275.77 331.15 C-276.74 331.79 -277.7 332.44 -278.69 333.1 C-280.59 334.38 -282.49 335.65 -284.39 336.93 C-284.82 337.22 -284.82 337.22 -286.99 338.67 C-287.75 339.19 -288.52 339.71 -289.31 340.24 C-291.08 341.35 -291.08 341.35 -292.08 341.35 C-292.41 332.22 -291.12 323.47 -289.77 314.47 C-289.53 312.89 -289.3 311.31 -289.07 309.72 C-288.61 306.63 -288.15 303.54 -287.69 300.45 C-287.2 297.17 -286.73 293.88 -286.29 290.59 C-276.16 216.38 -247.83 136.12 -195.08 81.35 C-194.45 80.69 -193.82 80.03 -193.16 79.35 C-184.03 69.87 -174.77 61.04 -164.08 53.35 C-163.46 52.9 -162.84 52.45 -162.2 51.98 C-132.85 30.89 -100.18 15.76 -65.27 6.47 C-64.24 6.2 -63.22 5.92 -62.17 5.64 C-41.47 0.41 -21.2 -0.08 0 0 Z " fill="#F00125" transform="translate(677.0804448127747,230.6518031358719)"/>
<path d="M0 0 C0 2.97 0 5.94 0 9 C2.71 8.99 5.41 8.95 8.12 8.88 C8.89 8.88 9.65 8.88 10.43 8.88 C14.91 8.73 17.33 8.17 20.55 4.95 C20.96 4.46 20.96 4.46 23 2 C23.66 2.33 24.32 2.66 25 3 C25.1 13.09 22.93 19.15 17.06 27.25 C15.68 29.26 14.29 31.28 12.91 33.3 C12.57 33.79 12.57 33.79 10.86 36.25 C8.4 39.89 6.17 43.62 4 47.44 C0.13 54.16 -3.93 60.75 -8.06 67.31 C-13.62 76.16 -19.09 85.06 -24.5 94 C-31.59 105.73 -38.81 117.37 -46.1 128.98 C-48.13 132.21 -50.15 135.45 -52.16 138.69 C-52.85 139.79 -53.53 140.88 -54.24 142.01 C-55.55 144.12 -56.86 146.23 -58.17 148.34 C-58.46 148.81 -58.46 148.81 -59.95 151.2 C-60.47 152.03 -60.99 152.87 -61.52 153.72 C-61.76 154.1 -61.76 154.1 -63 156 C-63.43 156.7 -63.86 157.39 -64.3 158.11 C-66 160 -66 160 -68.14 160.5 C-68.97 160.5 -69.8 160.49 -70.66 160.49 C-71.63 160.5 -72.59 160.51 -73.58 160.52 C-74.12 160.51 -74.12 160.51 -76.8 160.48 C-77.93 160.48 -79.05 160.49 -80.21 160.49 C-84 160.5 -87.79 160.48 -91.58 160.45 C-94.29 160.45 -97 160.45 -99.71 160.46 C-105.56 160.46 -111.4 160.45 -117.25 160.42 C-125.7 160.39 -134.15 160.38 -142.59 160.37 C-156.3 160.37 -170.01 160.34 -183.72 160.3 C-197.04 160.27 -210.35 160.24 -223.67 160.22 C-224.49 160.22 -225.31 160.22 -226.16 160.22 C-230.28 160.21 -234.39 160.21 -238.51 160.2 C-272.67 160.16 -306.84 160.09 -341 160 C-338.18 157.01 -335.27 155.43 -331.59 153.56 C-330.95 153.23 -330.32 152.9 -329.66 152.57 C-327.61 151.52 -325.55 150.48 -323.5 149.44 C-320.84 148.08 -318.19 146.73 -315.53 145.37 C-315.19 145.2 -315.19 145.2 -313.45 144.31 C-308.24 141.65 -303.05 138.93 -297.88 136.19 C-286.18 130.02 -274.4 124.03 -262.62 118.03 C-252.9 113.08 -243.19 108.12 -233.55 103.02 C-222.67 97.27 -211.71 91.7 -200.75 86.12 C-187.76 79.52 -174.79 72.88 -161.89 66.11 C-153.32 61.62 -144.67 57.29 -136 53 C-154.57 52.16 -173.13 51.73 -191.72 51.45 C-203.4 51.27 -215.07 51.07 -226.73 50.53 C-227.57 50.49 -228.41 50.46 -229.28 50.42 C-233.91 50.19 -238.42 49.73 -243 49 C-235.32 40.94 -227.84 36.38 -216.69 36.04 C-213.06 35.99 -209.43 36.03 -205.8 36.09 C-203.79 36.09 -201.77 36.09 -199.76 36.09 C-194.34 36.09 -188.91 36.13 -183.49 36.19 C-177.81 36.24 -172.12 36.24 -166.44 36.25 C-155.69 36.28 -144.95 36.34 -134.21 36.42 C-121.97 36.51 -109.73 36.56 -97.49 36.6 C-72.32 36.68 -47.16 36.82 -22 37 C-21.69 36.06 -21.39 35.12 -21.07 34.14 C-20 31 -20 31 -18.81 28.69 C-17.61 24.72 -17.98 21 -19 17 C-19.95 15.3 -20.94 13.63 -22 12 C-21.06 11.47 -20.12 10.94 -19.15 10.39 C-17.89 9.68 -16.63 8.96 -15.38 8.25 C-14.76 7.9 -14.14 7.55 -13.5 7.2 C-10.48 5.47 -7.53 3.71 -4.66 1.73 C-2 0 -2 0 0 0 Z " fill="#EF0125" transform="translate(877,560)"/>
<path d="M0 0 C6.01 0.09 12.02 0.1 18.04 0.12 C29.38 0.17 40.72 0.29 52.07 0.44 C65 0.61 77.93 0.69 90.86 0.77 C117.42 0.92 143.98 1.19 170.55 1.52 C169.59 2.64 168.63 3.76 167.67 4.88 C167.14 5.5 166.61 6.12 166.06 6.76 C163.53 9.7 160.98 12.57 158.3 15.36 C156.23 17.6 154.68 19.89 153.12 22.51 C148.92 28.88 144.45 33.58 136.84 35.42 C126.31 36.94 115.5 36.41 104.9 36.14 C100.2 36.04 95.51 36.03 90.81 36.01 C81.94 35.97 73.07 35.83 64.2 35.67 C54.09 35.49 43.98 35.41 33.87 35.33 C13.09 35.16 -7.68 34.88 -28.45 34.52 C-28.53 34.83 -28.53 34.83 -28.91 36.39 C-29.48 38.64 -30.24 40.73 -31.06 42.9 C-31.4 43.78 -31.74 44.67 -32.08 45.58 C-32.45 46.55 -32.82 47.52 -33.2 48.52 C-37.98 61.13 -42.55 73.81 -47.11 86.5 C-47.39 87.25 -47.66 88.01 -47.94 88.8 C-48.45 90.22 -48.96 91.65 -49.48 93.08 C-50.74 96.59 -52.07 100.05 -53.45 103.52 C-9.89 103.52 33.67 103.52 78.55 103.52 C78.88 101.21 79.21 98.9 79.55 96.52 C80.54 93.88 81.53 91.24 82.55 88.52 C71.66 88.36 71.66 88.36 16.55 87.52 C16.55 86.86 16.55 86.2 16.55 85.52 C17.87 84.22 17.87 84.22 19.8 82.65 C27.8 75.83 35.27 68.28 42.05 60.24 C42.29 59.96 42.29 59.96 43.55 58.52 C44.03 57.83 44.51 57.15 45.01 56.44 C48.96 53.45 52.81 54 57.64 54.07 C58.15 54.07 58.15 54.07 60.74 54.07 C64.13 54.07 67.52 54.1 70.9 54.13 C73.25 54.14 75.6 54.14 77.95 54.15 C84.13 54.16 90.31 54.2 96.49 54.25 C102.8 54.29 109.11 54.31 115.42 54.33 C127.79 54.37 140.17 54.44 152.55 54.52 C152.07 56.12 151.59 57.72 151.12 59.31 C150.85 60.2 150.59 61.09 150.31 62.01 C149.41 64.98 148.38 67.89 147.3 70.79 C146.88 71.93 146.46 73.07 146.03 74.24 C145.58 75.45 145.13 76.65 144.67 77.9 C143.69 80.54 142.72 83.18 141.74 85.83 C141.62 86.17 141.62 86.17 140.97 87.92 C138.07 95.81 135.2 103.71 132.35 111.62 C131.77 113.21 131.2 114.8 130.62 116.39 C129.81 118.63 129.01 120.87 128.2 123.11 C127.96 123.78 127.72 124.44 127.47 125.12 C126.11 128.9 124.81 132.7 123.55 136.52 C95.42 136.73 67.3 136.89 39.18 136.99 C26.13 137.03 13.07 137.1 0.01 137.2 C-11.37 137.29 -22.75 137.35 -34.13 137.37 C-40.16 137.38 -46.18 137.41 -52.21 137.47 C-57.89 137.53 -63.56 137.55 -69.23 137.54 C-71.31 137.54 -73.39 137.56 -75.47 137.59 C-93.13 137.87 -93.13 137.87 -99.54 132.15 C-100.88 130.63 -102.19 129.09 -103.45 127.52 C-104.64 126.47 -105.85 125.44 -107.09 124.45 C-107.61 124.01 -108.12 123.57 -108.65 123.11 C-109.67 122.23 -110.71 121.37 -111.77 120.52 C-113.28 119.2 -113.28 119.2 -115.45 116.52 C-115.1 112.18 -113.8 108.37 -112.28 104.31 C-111.84 103.15 -111.41 101.98 -110.96 100.79 C-110.5 99.59 -110.05 98.38 -109.58 97.15 C-109.13 95.95 -108.69 94.76 -108.22 93.53 C-107.38 91.29 -106.54 89.05 -105.7 86.81 C-105.29 85.73 -104.88 84.64 -104.45 83.52 C-103.99 82.31 -103.53 81.11 -103.06 79.86 C-101.45 75.56 -99.96 71.21 -98.47 66.87 C-96.89 62.26 -95.28 57.67 -93.66 53.09 C-92.82 50.67 -91.98 48.25 -91.16 45.83 C-89.97 42.31 -88.73 38.8 -87.48 35.3 C-87.13 34.22 -86.77 33.15 -86.41 32.04 C-86.04 31.02 -85.67 30.01 -85.29 28.96 C-85.13 28.52 -85.13 28.52 -84.36 26.28 C-81.87 22.67 -78.86 20.78 -75.22 18.38 C-72.54 16.58 -70.07 14.63 -67.55 12.61 C-47.04 -2.49 -24.42 -0.45 0 0 Z " fill="#EF0025" transform="translate(324.4548554420471,828.4790909290314)"/>
<path d="M0 0 C37.29 0 74.58 0 113 0 C113.99 6.6 114.98 13.2 116 20 C118.2 25.53 120.41 30.69 123 36 C123.75 37.8 124.48 39.62 125.19 41.44 C126.39 44.5 127.65 47.51 129 50.5 C131.69 56.48 134.05 62.58 136.45 68.69 C140.9 79.99 140.9 79.99 143.06 84.06 C144.9 87.55 146.15 91.15 147.44 94.88 C149.23 100.03 151.28 104.81 153.81 109.64 C155.43 112.86 156.72 116.18 158.02 119.54 C159.3 122.76 160.77 125.87 162.27 128.99 C163 131 163 131 163 135 C106.9 135 50.8 135 -7 135 C-5.3 131.6 -4.47 130.24 -1.83 127.82 C-1.18 127.22 -0.54 126.62 0.13 126 C0.81 125.38 1.49 124.76 2.19 124.12 C3.49 122.92 4.8 121.71 6.11 120.51 C6.87 119.84 7.64 119.18 8.43 118.49 C10.49 116.5 12.03 114.68 13.72 112.4 C18.13 106.91 22.37 102.77 29.44 101.27 C38.68 100.32 47.91 100.65 57.16 101.04 C60.98 101.18 64.8 101.25 68.63 101.32 C76.09 101.47 83.54 101.7 91 102 C90.48 100.83 89.96 99.66 89.43 98.45 C70.21 54.96 70.21 54.96 61 34 C57.1 36.47 53.81 38.98 50.62 42.31 C47.18 45.84 43.64 49.11 39.9 52.32 C38.02 53.98 36.26 55.71 34.5 57.5 C31.51 60.54 28.36 63.32 25.12 66.09 C21.89 69 18.89 72.14 15.88 75.28 C14 77 14 77 12 77 C11.84 77.5 11.84 77.5 11 80 C9.5 81.47 9.5 81.47 7.56 83.06 C4.21 85.9 1.08 88.87 -2 92 C-4.81 94.85 -7.63 97.61 -10.69 100.19 C-15.56 104.35 -19.99 108.97 -24.5 113.52 C-28.22 117.27 -31.96 120.92 -36.07 124.25 C-38 126 -38 126 -39.82 128.24 C-42.93 131.96 -45.39 134.6 -50.2 135.79 C-53.98 136.04 -57.66 136.01 -61.44 135.88 C-62.82 135.86 -64.2 135.85 -65.57 135.84 C-69.17 135.81 -72.76 135.72 -76.36 135.62 C-80.04 135.53 -83.72 135.48 -87.4 135.44 C-94.6 135.34 -101.8 135.19 -109 135 C-108.05 133.88 -107.1 132.77 -106.14 131.65 C-105.61 131.03 -105.08 130.41 -104.53 129.77 C-102.64 127.59 -100.67 125.53 -98.62 123.5 C-97.94 122.81 -97.25 122.12 -96.54 121.41 C-94.49 119.47 -92.41 117.62 -90.27 115.78 C-85.62 111.74 -81.32 107.39 -77 103 C-72.14 98.06 -67.25 93.29 -62 88.77 C-58.33 85.52 -54.93 82 -51.5 78.5 C-46.81 73.72 -42.06 69.13 -36.98 64.76 C-33.5 61.67 -30.26 58.33 -27 55 C-23.12 51.05 -19.25 47.16 -15.05 43.55 C-10.53 39.66 -6.37 35.44 -2.19 31.19 C-0.7 29.68 0.78 28.17 2.27 26.67 C2.92 26.01 3.56 25.35 4.23 24.68 C6 23 6 23 9 21 C8 16 8 16 0 0 Z " fill="#EF0125" transform="translate(574,830)"/>
<path d="M0 0 C75.9 0 151.8 0 230 0 C228.42 4.73 226.67 8.8 224.31 13.12 C224 13.71 223.68 14.3 223.36 14.91 C222.69 16.15 222 17.39 221.29 18.61 C220 21 220 21 218.78 24 C217.17 27.52 215.66 30.16 213 33 C207.82 34.68 202.81 34.41 197.44 34.17 C195.93 34.15 194.41 34.13 192.9 34.12 C188.93 34.07 184.96 33.96 181 33.82 C176.94 33.7 172.89 33.65 168.83 33.59 C160.88 33.46 152.94 33.25 145 33 C144.9 33.33 144.9 33.33 144.42 34.97 C143.01 39.74 141.55 44.46 139.83 49.13 C139.62 49.69 139.62 49.69 138.59 52.51 C138.15 53.71 137.7 54.9 137.25 56.12 C136.77 57.41 136.3 58.7 135.82 59.99 C131.1 72.81 126.3 85.59 121.48 98.36 C116.89 110.55 112.45 122.77 108 135 C88.86 135 69.72 135 50 135 C52.1 127.32 54.34 120.16 57.25 112.81 C58.13 110.55 59.02 108.28 59.9 106.02 C60.14 105.41 60.38 104.8 60.62 104.17 C64.46 94.27 68.15 84.31 71.86 74.37 C75.15 65.54 78.45 56.73 82 48 C82.99 45.52 82.99 45.52 88 33 C63.91 33 39.82 33 15 33 C0 2 0 2 0 0 Z " fill="#EF0125" transform="translate(741,830)"/>
<path d="M0 0 C1.06 0 2.13 0 3.22 0.01 C3.82 0.01 3.82 0.01 6.86 0.01 C8.17 0.01 9.48 0.02 10.82 0.02 C12.17 0.02 13.51 0.03 14.86 0.03 C18.4 0.03 21.94 0.04 25.48 0.05 C29.1 0.06 32.71 0.07 36.32 0.07 C43.42 0.08 50.51 0.1 57.6 0.12 C47.07 28.62 47.07 28.62 42.41 40.81 C37.94 52.56 33.51 64.34 29.1 76.12 C24.56 88.25 20 100.38 15.41 112.5 C14.98 113.64 14.55 114.78 14.1 115.96 C13.7 117.03 13.29 118.1 12.87 119.21 C12.53 120.11 12.18 121.02 11.83 121.96 C10.12 126.36 8.36 130.74 6.6 135.12 C-12.21 135.12 -31.02 135.12 -50.4 135.12 C-49.68 130.84 -49.05 127.79 -47.54 123.88 C-47.17 122.91 -46.8 121.93 -46.41 120.92 C-46.02 119.89 -45.62 118.87 -45.21 117.81 C-44.39 115.65 -43.57 113.49 -42.75 111.34 C-42.34 110.28 -41.94 109.22 -41.53 108.13 C-40 104.07 -38.57 99.97 -37.15 95.87 C-35.56 91.28 -33.88 86.77 -31.96 82.31 C-27.42 71.68 -23.84 60.61 -20.27 49.62 C-18.99 45.72 -17.52 41.96 -15.9 38.18 C-13.75 33.13 -12.07 28.05 -10.51 22.78 C-9.15 18.29 -7.69 13.83 -6.21 9.37 C-5.95 8.57 -5.69 7.77 -5.42 6.95 C-3.16 0.16 -3.16 0.16 0 0 Z " fill="#EF0125" transform="translate(1003.3980865478516,829.8797454833984)"/>
<path d="M0 0 C0.94 -0.01 1.89 -0.02 2.86 -0.03 C8.07 0.02 8.07 0.02 10.25 0.56 C12.05 2.43 12.05 2.43 13.25 4.56 C12.99 9.46 11.23 14.04 9.56 18.62 C9.33 19.32 9.1 20.01 8.86 20.73 C7.03 25.75 4.99 28.74 0.25 31.56 C-3.15 32.22 -6.42 32.22 -9.88 32.12 C-10.77 32.14 -11.66 32.15 -12.58 32.16 C-16.59 32.11 -19 32.08 -22.36 29.77 C-24.2 26.85 -23.98 24.61 -23.42 21.27 C-19.62 5.88 -19.62 5.88 -12.88 1.5 C-8.71 -0.33 -4.48 -0.11 0 0 Z " fill="#E10122" transform="translate(917.75,993.4375)"/>
<path d="M0 0 C2.97 0 5.94 0 9 0 C9.84 1.96 10.67 3.92 11.5 5.88 C11.96 6.97 12.43 8.06 12.91 9.18 C14 12 14 12 14 14 C15.19 12.98 16.38 11.96 17.56 10.94 C18.3 10.31 19.03 9.67 19.79 9.02 C21.85 7.14 23.61 5.16 25.44 3.06 C27.49 0.93 28.5 0.09 31.44 -0.44 C33.67 -0.44 35.79 -0.26 38 0 C35.92 7.09 33.67 14.12 31.31 21.12 C30.99 22.08 30.67 23.04 30.34 24.02 C29.56 26.35 28.78 28.67 28 31 C25.36 31 22.72 31 20 31 C21.88 24.62 23.86 18.29 26 12 C25.19 12.81 24.38 13.61 23.55 14.44 C22.47 15.48 21.39 16.52 20.31 17.56 C20.05 17.83 20.05 17.83 18.71 19.18 C14.73 22.96 14.73 22.96 11.28 23.16 C6.91 20.94 5.91 16.31 4 12 C2.85 15.13 2.85 15.13 -3 31 C-5.31 31 -7.62 31 -10 31 C-7.45 20.41 -3.66 10.24 0 0 Z " fill="#E40122" transform="translate(607,994)"/>
<path d="M0 0 C4.1 -0.12 8.21 -0.19 12.31 -0.25 C13.48 -0.28 14.65 -0.32 15.85 -0.35 C16.41 -0.36 16.41 -0.36 19.24 -0.39 C20.27 -0.41 21.3 -0.43 22.36 -0.45 C25 0 25 0 26.87 1.88 C28 4 28 4 27.88 6.25 C27.73 6.7 27.73 6.7 27 9 C26.82 9.65 26.65 10.29 26.46 10.96 C26.25 11.65 26.03 12.35 25.81 13.06 C25.61 13.71 25.41 14.36 25.21 15.04 C23.3 18.14 21.23 19.33 18 21 C14.87 21.59 11.8 21.69 8.62 21.75 C7.79 21.78 6.96 21.81 6.11 21.84 C4.07 21.91 2.04 21.96 0 22 C-0.66 23.49 -0.66 23.49 -4 31 C-6.31 31 -8.62 31 -11 31 C-8.32 20.33 -5.09 9.78 0 0 Z " fill="#D90123" transform="translate(397,994)"/>
<path d="M0 0 C2.05 0.03 4.1 0.07 6.15 0.1 C7.5 2.86 8.82 5.64 10.15 8.41 C10.53 9.2 10.92 9.98 11.31 10.79 C11.67 11.55 12.03 12.31 12.4 13.09 C12.74 13.78 13.07 14.48 13.42 15.2 C14.15 17.1 14.15 17.1 14.15 20.1 C14.81 20.1 15.47 20.1 16.15 20.1 C16.4 18.84 16.65 17.58 16.9 16.29 C18.13 10.7 20.1 5.43 22.15 0.1 C24.46 0.1 26.77 0.1 29.15 0.1 C26.32 10.67 23.39 20.99 19.15 31.1 C16.51 31.1 13.87 31.1 11.15 31.1 C9.67 27.96 9.67 27.96 2.15 12.1 C-0.41 18.37 -2.79 24.64 -4.85 31.1 C-7.49 31.1 -10.13 31.1 -12.85 31.1 C-10.83 24.17 -8.61 17.34 -6.22 10.54 C-5.91 9.63 -5.6 8.73 -5.28 7.81 C-4.98 6.95 -4.68 6.1 -4.37 5.22 C-4.24 4.83 -4.24 4.83 -3.56 2.89 C-2.46 0.13 -2.46 0.13 0 0 Z " fill="#E20122" transform="translate(760.84765625,993.90234375)"/>
<path d="M0 0 C8.91 0 17.82 0 27 0 C26.34 1.98 25.68 3.96 25 6 C18.4 6 11.8 6 5 6 C4.67 7.98 4.34 9.96 4 12 C9.61 12 15.22 12 21 12 C20.34 13.98 19.68 15.96 19 18 C13.06 18 7.12 18 1 18 C0.67 19.98 0.34 21.96 0 24 C6.27 24 12.54 24 19 24 C18.67 25.15 18.67 25.15 17 31 C7.76 31 -1.48 31 -11 31 C-7.62 18.6 -7.62 18.6 -5.5 13.25 C-5.1 12.22 -4.7 11.2 -4.28 10.14 C-2.9 6.74 -1.45 3.37 0 0 Z " fill="#DE0222" transform="translate(538,994)"/>
<path d="M0 0 C9.24 0 18.48 0 28 0 C27.34 1.98 26.68 3.96 26 6 C19.4 6 12.8 6 6 6 C5.67 7.98 5.34 9.96 5 12 C10.61 12 16.22 12 22 12 C21.34 13.98 20.68 15.96 20 18 C14.06 18.33 8.12 18.66 2 19 C1.34 20.98 0.68 22.96 0 25 C6.27 25 12.54 25 19 25 C18.67 26.98 18.34 28.96 18 31 C8.76 31 -0.48 31 -10 31 C-6.64 18.68 -6.64 18.68 -5 14.38 C-3.2 9.61 -1.62 4.85 0 0 Z " fill="#E20223" transform="translate(688,994)"/>
<path d="M0 0 C0.86 -0.01 1.72 -0.02 2.6 -0.04 C3.43 -0.03 4.25 -0.03 5.1 -0.02 C5.48 -0.02 5.48 -0.02 7.37 -0.01 C9.92 0.48 10.82 1.33 12.38 3.38 C12.62 6 12.62 6 12.38 8.38 C11.38 9.38 11.38 9.38 7.81 9.44 C6.68 9.42 5.54 9.4 4.38 9.38 C4.38 8.38 4.38 7.39 4.38 6.38 C2.23 6.54 2.23 6.54 -8.62 7.38 C-8.96 8.7 -9.28 10.01 -9.62 11.38 C-8.58 11.5 -7.53 11.62 -6.45 11.74 C-5.07 11.91 -3.69 12.08 -2.31 12.25 C-1.62 12.33 -0.93 12.41 -0.22 12.49 C3.33 12.93 5.34 13.35 8.38 15.38 C7.86 21.41 7.31 25.77 2.56 29.99 C0.04 31.59 -1.33 31.76 -4.29 31.77 C-5.16 31.78 -6.04 31.78 -6.94 31.79 C-7.85 31.77 -8.75 31.76 -9.69 31.75 C-10.14 31.76 -10.14 31.76 -12.45 31.79 C-12.88 31.78 -12.88 31.78 -15.1 31.77 C-15.5 31.77 -15.5 31.77 -17.51 31.76 C-20.14 31.28 -21.03 30.49 -22.62 28.38 C-22.88 25.75 -22.88 25.75 -22.62 23.38 C-21.62 22.38 -21.62 22.38 -18.06 22.31 C-16.93 22.33 -15.79 22.35 -14.62 22.38 C-14.62 23.37 -14.62 24.36 -14.62 25.38 C-12.48 25.21 -12.48 25.21 -1.62 24.38 C-0.96 22.73 -0.31 21.08 0.38 19.38 C-0.67 19.34 -1.72 19.3 -2.8 19.26 C-4.18 19.2 -5.56 19.13 -6.94 19.06 C-7.63 19.04 -8.32 19.02 -9.03 18.99 C-11.95 18.84 -14.13 18.71 -16.58 17.04 C-18.38 14.17 -17.97 11.66 -17.62 8.38 C-14.12 0.25 -7.92 -0.11 0 0 Z " fill="#E50223" transform="translate(264.625,993.625)"/>
<path d="M0 0 C0.42 -0 0.42 -0 2.56 -0.01 C6.3 0.05 8.7 0.1 11.96 2.03 C12.43 2.52 12.89 3 13.38 3.5 C13.04 5.15 12.72 6.8 12.38 8.5 C10.07 8.5 7.75 8.5 5.38 8.5 C5.38 7.84 5.38 7.18 5.38 6.5 C3.23 6.66 3.23 6.66 -7.62 7.5 C-8.28 9.15 -8.95 10.8 -9.62 12.5 C-8.5 12.55 -7.38 12.6 -6.23 12.65 C-4.76 12.72 -3.29 12.8 -1.81 12.88 C-1.44 12.89 -1.44 12.89 0.42 12.97 C4.19 13.17 6.17 13.36 9.38 15.5 C8.81 21.18 7.94 26.16 3.57 30.15 C0.99 31.74 -0.49 31.89 -3.5 31.9 C-4.42 31.9 -5.35 31.91 -6.29 31.91 C-7.25 31.9 -8.2 31.89 -9.19 31.88 C-9.67 31.88 -9.67 31.88 -12.09 31.91 C-13.01 31.91 -13.93 31.9 -14.88 31.9 C-15.72 31.9 -16.56 31.89 -17.42 31.89 C-20.12 31.41 -21.05 30.73 -22.62 28.5 C-22.31 25.31 -22.31 25.31 -21.62 22.5 C-19.32 22.5 -17 22.5 -14.62 22.5 C-14.62 23.49 -14.62 24.48 -14.62 25.5 C-10 25.17 -5.38 24.84 -0.62 24.5 C0.03 22.85 0.7 21.2 1.38 19.5 C0.25 19.47 -0.87 19.45 -2.02 19.42 C-3.49 19.37 -4.96 19.31 -6.44 19.25 C-7.18 19.24 -7.91 19.22 -8.67 19.21 C-12 19.06 -14.1 18.95 -16.66 16.73 C-17.8 14.09 -17.81 12.85 -17.19 10.06 C-17.12 9.69 -17.12 9.69 -16.75 7.82 C-13.09 0.3 -7.56 -0.26 0 0 Z " fill="#E30224" transform="translate(989.625,993.5)"/>
<path d="M0 0 C4.2 0.69 7.95 2.02 11.92 3.55 C12.58 3.8 13.23 4.05 13.91 4.31 C15.3 4.85 16.69 5.39 18.07 5.93 C20.16 6.74 22.25 7.54 24.35 8.34 C45.44 16.48 45.44 16.48 51.62 23.81 C52.46 24.79 53.3 25.76 54.16 26.77 C54.47 27.14 54.47 27.14 56 29 C51.06 30.46 46.22 30.01 41.12 29.81 C40.14 29.79 39.16 29.78 38.15 29.76 C30.24 29.45 26.18 27.36 20.7 21.64 C19.55 20.37 18.4 19.09 17.25 17.81 C12.3 12.38 7.27 7.33 1.7 2.54 C1.14 2.03 0.58 1.52 0 1 C0 0.67 0 0.34 0 0 Z " fill="#090001" transform="translate(836,425)"/>
<path d="M0 0 C2.31 0 4.62 0 7 0 C6.37 4.33 5.37 8.38 4.06 12.56 C3.72 13.66 3.38 14.75 3.04 15.88 C2.13 18.62 1.07 21.32 0 24 C4.95 23.67 9.9 23.34 15 23 C15.57 21.42 16.13 19.85 16.71 18.22 C17.46 16.17 18.2 14.12 18.94 12.06 C19.31 11.02 19.68 9.98 20.07 8.91 C20.43 7.92 20.78 6.93 21.15 5.91 C21.48 4.99 21.81 4.08 22.15 3.13 C23 1 23 1 24 0 C26.33 -0.04 28.67 -0.04 31 0 C30.06 3.68 29.04 7.34 28 11 C27.83 11.63 27.66 12.26 27.48 12.91 C26.93 14.91 26.34 16.89 25.75 18.88 C25.39 20.11 25.04 21.34 24.67 22.62 C22.55 26.91 20.41 29.11 16 31 C12.57 31.65 9.29 31.66 5.81 31.56 C4.92 31.57 4.03 31.58 3.12 31.6 C-0.74 31.55 -3.3 31.4 -6.68 29.46 C-8.63 25.83 -7.98 22.83 -7 19 C-6.13 16.17 -5.1 13.43 -4 10.69 C-3.46 9.3 -2.92 7.9 -2.38 6.51 C-1.92 5.35 -1.47 4.19 -1 3 C-0.67 2.01 -0.34 1.02 0 0 Z " fill="#DD0122" transform="translate(322,994)"/>
<path d="M0 0 C2.64 0 5.28 0 8 0 C6.61 4.81 5.21 9.59 3.38 14.25 C2 18 2 18 1 24 C6.94 24 12.88 24 19 24 C18.67 25.15 18.67 25.15 17 31 C8.09 31 -0.82 31 -10 31 C-6.62 18.62 -6.62 18.62 -5.18 14.55 C-4.87 13.68 -4.56 12.82 -4.25 11.92 C-4.09 11.49 -4.09 11.49 -3.31 9.31 C-2.99 8.41 -2.67 7.5 -2.34 6.57 C-1.56 4.38 -0.78 2.19 0 0 Z " fill="#DA0121" transform="translate(469,994)"/>
<path d="M0 0 C10.23 0 20.46 0 31 0 C30.34 1.98 29.68 3.96 29 6 C25.04 6 21.08 6 17 6 C16.77 7.18 16.55 8.35 16.31 9.56 C15.3 14.14 13.92 18.55 12.44 23 C12.22 23.67 11.99 24.34 11.76 25.03 C10.13 29.87 10.13 29.87 9 31 C6.67 31.04 4.33 31.04 2 31 C3.56 22.26 6.78 14.24 10 6 C6.37 6 2.74 6 -1 6 C-0.67 4.02 -0.34 2.04 0 0 Z " fill="#DF0122" transform="translate(831,994)"/>
<path d="M0 0 C0.33 0.66 0.66 1.32 1 2 C2.65 1.67 4.3 1.34 6 1 C6 1.66 6 2.32 6 3 C10.29 3 14.58 3 19 3 C19 3.33 19 3.66 19 4 C14.71 4 10.42 4 6 4 C5.01 7.63 4.02 11.26 3 15 C7.62 15 12.24 15 17 15 C16.67 15.66 16.34 16.32 16 17 C16.99 17.33 17.98 17.66 19 18 C19 18.66 19 19.32 19 20 C13.06 20.33 7.12 20.66 1 21 C0.34 22.49 0.34 22.49 -3 30 C-5.31 30 -7.62 30 -10 30 C-7.42 19.74 -3.98 9.8 0 0 Z " fill="#E90223" transform="translate(396,995)"/>
<path d="M0 0 C0.59 0.01 0.59 0.01 3.59 0.07 C4.18 0.08 4.18 0.08 7.19 0.12 C8.1 0.15 9.02 0.17 9.96 0.2 C11.27 3.8 10.64 5.73 9.15 9.2 C8.79 10.04 8.43 10.89 8.07 11.76 C7.08 13.93 6.03 16.06 4.96 18.2 C0.01 18.2 -4.94 18.2 -10.04 18.2 C-8.91 10.27 -8.91 10.27 -7.1 6.38 C-6.76 5.63 -6.42 4.88 -6.07 4.11 C-4.38 0.97 -3.64 0.23 0 0 Z " fill="#0B0001" transform="translate(912.0390625,999.8046875)"/>
<path d="M0 0 C4.62 0 9.24 0 14 0 C15 4 15 4 14.04 6.73 C12 9 12 9 8.43 9.49 C7.05 9.46 5.68 9.4 4.31 9.31 C3.61 9.29 2.91 9.27 2.19 9.24 C0.46 9.19 -1.27 9.1 -3 9 C-2.01 6.03 -1.02 3.06 0 0 Z " fill="#110002" transform="translate(402,1000)"/>
<path d="M0 0 C9.24 0 18.48 0 28 0 C27.34 1.98 26.68 3.96 26 6 C19.4 6 12.8 6 6 6 C6 5.67 6 5.34 6 5 C6.8 4.88 7.61 4.75 8.44 4.62 C9.28 4.42 10.13 4.21 11 4 C11.33 3.34 11.66 2.68 12 2 C10.56 2.14 9.12 2.29 7.69 2.44 C6.89 2.52 6.09 2.6 5.26 2.68 C3 3 3 3 0 4 C-0.69 6.06 -0.69 6.06 -1 8 C-1.33 7.34 -1.66 6.68 -2 6 C-1.34 4.02 -0.68 2.04 0 0 Z " fill="#E5001F" transform="translate(688,994)"/>
<path d="M0 0 C34.32 0 68.64 0 104 0 C102.68 1.32 101.36 2.64 100 4 C99.84 3.67 99.84 3.67 99 2 C66.33 1.67 33.66 1.34 0 1 C0 0.67 0 0.34 0 0 Z " fill="#170002" transform="translate(378,662)"/>
<path d="M0 0 C2.12 -0.03 4.25 -0.05 6.38 -0.06 C7.56 -0.07 8.74 -0.09 9.96 -0.1 C13 0 13 0 15 1 C14.12 5.88 14.12 5.88 13 7 C10.65 7.07 8.29 7.08 5.94 7.06 C4.65 7.05 3.36 7.04 2.03 7.04 C1.03 7.02 0.03 7.01 -1 7 C-1 6.01 -1 5.02 -1 4 C-3.31 4 -5.62 4 -8 4 C-8 3.67 -8 3.34 -8 3 C-5.36 3 -2.72 3 0 3 C0 2.01 0 1.02 0 0 Z " fill="#1C0205" transform="translate(976,1012)"/>
<path d="M0 0 C0.6 0.01 0.6 0.01 3.62 0.04 C4.22 0.04 4.22 0.04 7.25 0.06 C8.18 0.07 9.1 0.09 10.06 0.1 C10.06 0.76 10.06 1.42 10.06 2.1 C12.37 2.1 14.68 2.1 17.06 2.1 C17.06 2.43 17.06 2.76 17.06 3.1 C15.41 3.43 13.76 3.76 12.06 4.1 C11.73 5.09 11.4 6.08 11.06 7.1 C5.78 6.77 0.5 6.44 -4.94 6.1 C-3.75 0.12 -3.75 0.12 0 0 Z " fill="#1E0004" transform="translate(984.94140625,999.90234375)"/>
<path d="M0 0 C3.04 -0.29 3.04 -0.29 6.62 -0.19 C7.81 -0.16 9 -0.13 10.23 -0.11 C11.14 -0.07 12.06 -0.04 13 0 C13.33 0.99 13.66 1.98 14 3 C14.66 3.66 15.32 4.32 16 5 C16 5.99 16 6.98 16 8 C10.39 7.34 4.78 6.68 -1 6 C-1.33 5.01 -1.66 4.02 -2 3 C-1.34 2.01 -0.68 1.02 0 0 Z " fill="#270006" transform="translate(256,1000)"/>
<path d="M0 0 C6.6 0 13.2 0 20 0 C18.68 0.99 17.36 1.98 16 3 C16 3.99 16 4.98 16 6 C10.39 6 4.78 6 -1 6 C-0.67 4.02 -0.34 2.04 0 0 Z " fill="#1E0004" transform="translate(543,1000)"/>
<path d="M0 0 C6.6 0 13.2 0 20 0 C20 0.33 20 0.66 20 1 C18.87 1.12 17.73 1.25 16.56 1.38 C15.97 1.48 15.97 1.48 13 2 C12.67 2.66 12.34 3.32 12 4 C13.32 4.66 14.64 5.32 16 6 C10.39 6 4.78 6 -1 6 C-0.67 4.02 -0.34 2.04 0 0 Z " fill="#230004" transform="translate(694,1000)"/>
<path d="M0 0 C3.1 -0.09 6.21 -0.14 9.31 -0.19 C10.19 -0.21 11.07 -0.24 11.98 -0.26 C12.41 -0.27 12.41 -0.27 14.55 -0.29 C14.94 -0.3 14.94 -0.3 16.92 -0.34 C19.55 0.09 20.41 0.89 22 3 C22.25 5.62 22.25 5.62 22 8 C21 9 21 9 17.44 9.06 C16.3 9.04 15.17 9.02 14 9 C14.33 8.34 14.66 7.68 15 7 C16.32 7.33 17.64 7.66 19 8 C19 6.35 19 4.7 19 3 C12.4 2.67 5.8 2.34 -1 2 C-0.67 1.34 -0.34 0.68 0 0 Z " fill="#DA0124" transform="translate(255,994)"/>
<path d="M0 0 C12.63 3.42 12.63 3.42 18 7 C16.35 7.33 14.7 7.66 13 8 C13.66 9.32 14.32 10.64 15 12 C12 12 12 12 10.35 10.57 C9.78 9.95 9.21 9.33 8.62 8.69 C5.94 5.86 3.39 3.95 0 2 C0 1.34 0 0.68 0 0 Z " fill="#300005" transform="translate(918,476)"/>
<path d="M0 0 C1 3 1 3 0 6 C-4.88 5.12 -4.88 5.12 -6 4 C-7.85 3.77 -9.7 3.59 -11.56 3.44 C-12.57 3.35 -13.59 3.27 -14.63 3.18 C-15.02 3.15 -15.02 3.15 -17 3 C-17 2.67 -17 2.34 -17 2 C-11.22 -0.01 -6.1 -0.22 0 0 Z " fill="#F30225" transform="translate(274,996)"/>
<path d="M0 0 C0.56 0.18 0.56 0.18 3.38 1.06 C0.2 3.61 -3.12 5.47 -6.75 7.31 C-7.28 7.58 -7.28 7.58 -9.95 8.95 C-10.83 9.32 -11.71 9.69 -12.62 10.06 C-13.29 9.73 -13.94 9.4 -14.62 9.06 C-5.28 -0.76 -5.28 -0.76 0 0 Z " fill="#CF001C" transform="translate(348.625,781.9375)"/>
<path d="M0 0 C-2.97 0.66 -5.94 1.32 -9 2 C-8 6 -8 6 -5 8 C-9.03 7.45 -13.02 6.84 -17 6 C-16.67 5.01 -16.34 4.02 -16 3 C-13.42 1.8 -13.42 1.8 -10.19 0.75 C-9.13 0.39 -8.07 0.04 -6.98 -0.33 C-4 -1 -4 -1 0 0 Z " fill="#B5011B" transform="translate(865,510)"/>
<path d="M0 0 C9.24 0 18.48 0 28 0 C27.67 0.66 27.34 1.32 27 2 C26.4 1.99 25.79 1.98 25.17 1.97 C22.4 1.93 19.64 1.9 16.88 1.88 C15.92 1.86 14.97 1.84 13.99 1.82 C8.98 1.79 4.63 1.81 0 4 C-0.88 6.12 -0.88 6.12 -1 8 C-1.33 7.34 -1.66 6.68 -2 6 C-1.34 4.02 -0.68 2.04 0 0 Z " fill="#BD011E" transform="translate(688,994)"/>
<path d="M0 0 C2.64 0 5.28 0 8 0 C8 0.66 8 1.32 8 2 C8.66 2.66 9.32 3.32 10 4 C6.7 4 3.4 4 0 4 C0 2.68 0 1.36 0 0 Z " fill="#030000" transform="translate(543,1001)"/>
<path d="M0 0 C0.66 0.33 1.32 0.66 2 1 C1.47 1.52 0.94 2.04 0.39 2.57 C-3.31 6.23 -6.87 9.83 -10 14 C-10.99 13.67 -11.98 13.34 -13 13 C-8.71 8.71 -4.42 4.42 0 0 Z " fill="#200003" transform="translate(542,949)"/>
<path d="M0 0 C1.32 1.32 2.64 2.64 4 4 C1.15 6.32 -1.54 7.75 -5 9 C-3.35 6.03 -1.7 3.06 0 0 Z " fill="#220105" transform="translate(537,435)"/>
<path d="M0 0 C0.33 0 0.66 0 1 0 C1 1.65 1 3.3 1 5 C0.34 5 -0.32 5 -1 5 C-1 8.3 -1 11.6 -1 15 C-1.99 15 -2.98 15 -4 15 C-5 13 -5 13 -4 9.96 C-3.53 8.78 -3.05 7.59 -2.56 6.38 C-2.09 5.19 -1.62 4 -1.13 2.77 C-0.76 1.86 -0.38 0.94 0 0 Z " fill="#B9011B" transform="translate(535,1001)"/>
<path d="M0 0 C1.63 0.11 3.25 0.24 4.88 0.38 C5.78 0.44 6.68 0.51 7.62 0.59 C10 1 10 1 12 3 C2.59 4.33 2.59 4.33 -2 3 C-1.34 2.01 -0.68 1.02 0 0 Z " fill="#280006" transform="translate(872,502)"/>
<path d="M0 0 C0 3 0 3 -1.75 5.04 C-2.49 5.75 -3.24 6.46 -4 7.19 C-4.74 7.9 -5.49 8.62 -6.25 9.36 C-6.83 9.9 -7.4 10.44 -8 11 C-8.99 10.67 -9.98 10.34 -11 10 C-9.18 8.35 -9.18 8.35 0 0 Z " fill="#DE0123" transform="translate(596,936)"/>
<path d="M0 0 C0.33 0.99 0.66 1.98 1 3 C-0.26 4.2 -1.53 5.38 -2.81 6.56 C-3.17 6.89 -3.17 6.89 -4.96 8.57 C-5.63 9.04 -6.31 9.51 -7 10 C-7.99 9.67 -8.98 9.34 -10 9 C-6.7 6.03 -3.4 3.06 0 0 Z " fill="#DC0121" transform="translate(374,756)"/>
<path d="M0 0 C-0.66 1.65 -1.32 3.3 -2 5 C-3.49 5.16 -3.49 5.16 -11 6 C-7.93 2.93 -4.56 0 0 0 Z " fill="#CF0120" transform="translate(547,714)"/>
<path d="M0 0 C2.31 0 4.62 0 7 0 C4.45 2.97 1.55 4.42 -2 6 C-2.66 6 -3.32 6 -4 6 C-3.67 5.01 -3.34 4.02 -3 3 C-2.01 3 -1.02 3 0 3 C0 2.01 0 1.02 0 0 Z " fill="#1F0003" transform="translate(735,612)"/>
<path d="M0 0 C3.81 0.67 7.35 1.73 11 3 C9.68 3.99 8.36 4.98 7 6 C3.63 4.61 2.01 3.02 0 0 Z " fill="#1D0002" transform="translate(836,425)"/>
<path d="M0 0 C0.33 0 0.66 0 1 0 C1.05 0.69 1.1 1.37 1.15 2.08 C1.22 2.98 1.3 3.88 1.38 4.81 C1.44 5.71 1.51 6.6 1.59 7.52 C2 10 2 10 4 13 C2.35 13.66 0.7 14.32 -1 15 C-0.67 10.05 -0.34 5.1 0 0 Z " fill="#AB0014" transform="translate(881,530)"/>
<path d="M0 0 C0 3 0 3 -2 6 C-2.66 6 -3.32 6 -4 6 C-4 6.66 -4 7.32 -4 8 C-5.63 9.38 -7.29 10.72 -9 12 C-9.66 11.67 -10.32 11.34 -11 11 C-7.37 7.37 -3.74 3.74 0 0 Z " fill="#200003" transform="translate(594,359)"/>
<path d="M0 0 C1.05 1.86 1.05 1.86 2 4 C1.12 6.25 1.12 6.25 0 8 C-0.66 8 -1.32 8 -2 8 C-2.33 9.32 -2.66 10.64 -3 12 C-4 10 -4 10 -3.22 7.62 C-2.84 6.71 -2.46 5.81 -2.06 4.88 C-1.68 3.96 -1.3 3.05 -0.91 2.12 C-0.61 1.42 -0.31 0.72 0 0 Z " fill="#B90119" transform="translate(922,1004)"/>
<path d="M0 0 C0 0.33 0 0.66 0 1 C-0.84 1.13 -1.69 1.27 -2.55 1.4 C-3.65 1.58 -4.75 1.76 -5.88 1.94 C-6.97 2.11 -8.06 2.29 -9.18 2.46 C-12 3 -12 3 -14 4 C-16.01 3.72 -18.01 3.39 -20 3 C-20 2.67 -20 2.34 -20 2 C-13.26 0.74 -6.87 -0.26 0 0 Z " fill="#50010B" transform="translate(815,502)"/>
<path d="M0 0 C2.64 0.66 5.28 1.32 8 2 C7.67 2.99 7.34 3.98 7 5 C5.35 5.33 3.7 5.66 2 6 C1.34 4.02 0.68 2.04 0 0 Z " fill="#CA0424" transform="translate(676,345)"/>
<path d="M0 0 C1.98 0 3.96 0 6 0 C6.33 1.32 6.66 2.64 7 4 C4.69 4 2.38 4 0 4 C0 2.68 0 1.36 0 0 Z " fill="#030000" transform="translate(256,1001)"/>
<path d="M0 0 C0.99 0.66 1.98 1.32 3 2 C3.25 4.56 3.25 4.56 3 7 C2 8 2 8 -1.56 8.06 C-2.7 8.04 -3.83 8.02 -5 8 C-4.67 7.34 -4.34 6.68 -4 6 C-3.34 6.16 -3.34 6.16 0 7 C0 4.69 0 2.38 0 0 Z " fill="#C1011D" transform="translate(274,995)"/>
<path d="M0 0 C0.66 0.33 1.32 0.66 2 1 C0.74 2.34 -0.53 3.67 -1.81 5 C-2.52 5.74 -3.23 6.49 -3.96 7.25 C-6 9 -6 9 -9 9 C-9 8.34 -9 7.68 -9 7 C-7.03 5.27 -7.03 5.27 -4.5 3.38 C-3.66 2.74 -2.83 2.11 -1.97 1.46 C-1.32 0.98 -0.67 0.5 0 0 Z " fill="#DA0123" transform="translate(389,652)"/>
<path d="M0 0 C2 2 2 2 2 6 C3.32 6.33 4.64 6.66 6 7 C3.36 7 0.72 7 -2 7 C-1.34 4.69 -0.68 2.38 0 0 Z " fill="#B50018" transform="translate(750,1018)"/>
<path d="M0 0 C0.99 0.66 1.98 1.32 3 2 C3 5 3 5 1.56 6.5 C1.05 7 0.53 7.49 0 8 C-0.33 8.99 -0.66 9.98 -1 11 C-1.66 11 -2.32 11 -3 11 C-2.01 7.37 -1.02 3.74 0 0 Z " fill="#C7011B" transform="translate(468,997)"/>
<path d="M0 0 C1.65 1.65 3.3 3.3 5 5 C2.69 4.83 2.69 4.83 -9 4 C-9 3.67 -9 3.34 -9 3 C-6.03 3 -3.06 3 0 3 C0 2.01 0 1.02 0 0 Z " fill="#430108" transform="translate(887,450)"/>
<path d="M0 0 C2.31 0 4.62 0 7 0 C6.67 0.99 6.34 1.98 6 3 C3.69 3 1.38 3 -1 3 C-0.67 2.01 -0.34 1.02 0 0 Z " fill="#0A0202" transform="translate(696,1002)"/>
<path d="M0 0 C-1.49 3.8 -3.76 5.61 -7 8 C-7 5 -7 5 -4.62 2.31 C-2 0 -2 0 0 0 Z " fill="#D80020" transform="translate(388,745)"/>
<path d="M0 0 C-0.33 0.99 -0.66 1.98 -1 3 C-4.59 4.47 -8.19 5.33 -12 6 C-8.6 3.25 -4.52 0 0 0 Z " fill="#280004" transform="translate(492,509)"/>
<path d="M0 0 C-4.93 2.84 -9.51 3.45 -15 2 C-15 1.67 -15 1.34 -15 1 C-13.25 0.64 -11.5 0.28 -9.75 -0.06 C-9.26 -0.16 -9.26 -0.16 -6.8 -0.66 C-4.13 -0.98 -2.51 -0.86 0 0 Z " fill="#B3011C" transform="translate(635,234)"/>
<path d="M0 0 C2.31 0 4.62 0 7 0 C6.34 1.32 5.68 2.64 5 4 C4.38 3.84 3.76 3.67 3.12 3.5 C1 3 1 3 -1 3 C-0.67 2.01 -0.34 1.02 0 0 Z " fill="#D2001E" transform="translate(346,994)"/>
<path d="M0 0 C0.98 3.04 1.16 5 0 8 C-1.56 9.75 -1.56 9.75 -3 11 C-3.66 10.67 -4.32 10.34 -5 10 C-4.55 9.46 -4.09 8.93 -3.62 8.38 C-1.78 5.68 -0.92 3.11 0 0 Z " fill="#440009" transform="translate(926,1012)"/>
<path d="M0 0 C3.25 2.83 4.52 4.69 5 9 C4.34 9 3.68 9 3 9 C2.01 6.03 1.02 3.06 0 0 Z " fill="#D20125" transform="translate(714,912)"/>
<path d="M0 0 C0 0.99 0 1.98 0 3 C-2.5 5.19 -2.5 5.19 -5 7 C-5.66 6.67 -6.32 6.34 -7 6 C-4.69 4.02 -2.38 2.04 0 0 Z " fill="#D40126" transform="translate(557,876)"/>
<path d="M0 0 C0.66 0.33 1.32 0.66 2 1 C0.38 6.75 0.38 6.75 -3 9 C-2.01 6.03 -1.02 3.06 0 0 Z " fill="#D00120" transform="translate(859,586)"/>
</svg>
